<?xml version="1.0" encoding="UTF-8"?>
<svg xmlns="http://www.w3.org/2000/svg" viewBox="0 0 100 100">
  <defs>
    <style>
      .cls-1 {
        fill: none;
        stroke: red;
        stroke-miterlimit: 10;
      }
    </style>
  </defs>
  <g id="gesture_visual">
    <path d="M35.53,83.481c-.874-15.04-1.255-30.401-1.497-45.473-.019-1.516-.066-5.358-.084-6.821-.918-10.769,7.436-21.573,18.465-22.315,9.995-1.118,19.865,6.271,21.676,16.137,2.068,9.538-3.999,19.963-13.432,22.532-2.964.846-6.225,1.155-9.095.047,5.88,1.177,11.971-1.718,15.817-6.055,3.786-4.273,5.279-10.405,3.963-15.931-1.304-5.445-5.288-10.126-10.494-12.16-11.058-4.515-23.149,3.798-23.671,15.541-.266,17.623-.615,36.987-1.647,54.498h0Z"/>
  </g>
  <g id="gesture_path">
    <path class="cls-1" d="M35.53,83.481V29.743c0-10.198,7.93-18.884,18.122-19.246,10.7-.38,19.494,8.181,19.494,18.796,0,9.678-7.309,17.648-16.709,18.692-1.228.136-3.632.129-4.873-.396"/>
  </g>
  <g id="end_arrow">
    <path d="M35.53,90.651l.259-1.157c.856-3.83,2.123-7.574,3.784-11.178h0s0,0,0,0c-2.592.96-5.493.96-8.085,0h0s.039.085.039.085c1.651,3.598,2.911,7.336,3.761,11.158l.243,1.091Z"/>
  </g>
  <g id="mid_arrows">
    <path d="M29.49,34.855c1.78.86,3.99,1.09,6.04,1.09s4.25-.23,6.04-1.09c-2.48,2.24-4.37,4.57-5.65,6.95l-.39.72-.39-.72c-1.28-2.38-3.17-4.71-5.65-6.95Z"/>
  </g>
  <g id="origin">
    <circle cx="51.616" cy="47.653" r="3"/>
  </g>
</svg>