<?xml version="1.0" encoding="UTF-8"?>
<svg xmlns="http://www.w3.org/2000/svg" viewBox="0 0 100 100">
  <defs>
    <style>
      .cls-1 {
        fill: none;
        stroke: red;
        stroke-miterlimit: 10;
      }
    </style>
  </defs>
  <g id="gesture_visual">
    <path d="M23.666,21.975c3.812-.378,7.633-.629,11.453-.871.209,4.228.466,9.826.578,14.011,0,0-1.357-1.357-1.357-1.357,5.662-.177,11.338-.25,17.001-.366,0,0,.013,1.723.013,1.723.028,4.199.097,10.104.03,14.242,0,0-.504-1.216-.504-1.216,9.459,9.672,18.86,19.418,27.452,29.885-10.645-8.746-20.561-18.313-30.387-27.952-.048-4.417-.022-10.483.029-14.958,0,0,1.69,1.69,1.69,1.69-5.108-.1-10.217-.173-15.325-.333,0,0-1.386-.043-1.386-.043.063-4.358.371-10.052.566-14.453,0,0,.82.82.82.82-3.561-.221-7.119-.47-10.674-.82h0Z"/>
  </g>
  <g id="gesture_path">
    <polyline class="cls-1" points="23.666 21.975 34.34 21.975 34.34 35.114 49.665 35.114 49.665 49.357 78.334 78.025"/>
  </g>
  <g id="end_arrow">
    <path d="M82.216,81.622l-1.001-.635c-3.313-2.103-6.857-3.854-10.579-5.228h0,0c2.512-1.154,4.563-3.205,5.717-5.717h0s.033.088.033.088c1.377,3.712,3.129,7.245,5.231,10.549l.6.943Z"/>
  </g>
  <g id="mid_arrows">
    <path d="M43.96,38.378c1.78.86,3.99,1.09,6.04,1.09,2.05,0,4.25-.23,6.04-1.09-2.48,2.24-4.37,4.57-5.65,6.95l-.39.72-.39-.72c-1.28-2.38-3.17-4.71-5.65-6.95Z"/>
  </g>
  <g id="origin">
    <circle cx="23.666" cy="21.975" r="3"/>
  </g>
</svg>