<?xml version="1.0" encoding="UTF-8"?>
<svg xmlns="http://www.w3.org/2000/svg" viewBox="0 0 100 100">
  <defs>
    <style>
      .cls-1 {
        fill: none;
        stroke: red;
        stroke-miterlimit: 10;
      }
    </style>
  </defs>
  <g id="gesture_visual">
    <path d="M60.976,14.337c-2.938,6.221-5.952,12.404-9.027,18.557,0,0-.013-.762-.013-.762,10.578,17.184,21.248,35.288,31.484,52.656-1.583-.046-16.199.098-18.192.068-13.567-.007-32.123-.15-45.687-.328,0,0-2.568-.029-2.568-.029.724-1.161,7.008-11.05,7.909-12.485,6.349-9.922,13.547-20.999,20.173-30.74-1.934,3.603-3.948,7.157-5.925,10.734-5.606,9.94-12.558,22.019-18.374,31.837,0,0-1.215-2.164-1.215-2.164,13.568-.178,32.12-.323,45.687-.328,0,0,15.229.057,15.229.057,0,0-1.467,2.541-1.467,2.541-6.934-12.223-14.577-25.842-21.419-38.214-2.454-4.379-4.804-8.819-7.215-13.223,3.475-6.096,7.007-12.159,10.619-18.178h0Z"/>
  </g>
  <g id="gesture_path">
    <polyline class="cls-1" points="60.976 14.337 51.257 32.524 80.458 83.104 19.542 83.104 45.056 41.274"/>
  </g>
  <g id="end_arrow">
    <path d="M46.479,38.609l-.802.874c-2.653,2.891-5.62,5.503-8.858,7.797h0s0,0,0,0c2.725.462,5.239,1.91,7.005,4.035h0s.009-.093.009-.093c.365-3.942,1.139-7.809,2.311-11.546l.334-1.067Z"/>
  </g>
  <g id="mid_arrows">
    <path d="M68.437,49.793c-1.247,1.534-3.151,2.68-5.007,3.549s-3.946,1.595-5.932,1.575c3.196.976,5.896,2.285,8.065,3.897l.659.487.048-.817c.149-2.698.873-5.61,2.168-8.691Z"/>
  </g>
  <g id="origin">
    <circle cx="60.967" cy="14.337" r="3"/>
  </g>
</svg>