<?xml version="1.0" encoding="UTF-8"?>
<svg xmlns="http://www.w3.org/2000/svg" viewBox="0 0 100 100">
  <defs>
    <style>
      .cls-1 {
        fill: none;
        stroke: red;
        stroke-miterlimit: 10;
      }
    </style>
  </defs>
  <g id="gesture_visual">
    <path d="M16.313,32.627c1.132,17.864,16.329,32.749,34.208,32.46,17.774.256,32.98-14.681,34.208-32.461,1.363,13.955-7.589,27.802-20.48,33.14-22.927,10.065-49.844-7.921-47.936-33.14h0Z"/>
  </g>
  <g id="gesture_path">
    <path class="cls-1" d="M16.313,32.627c0,18.893,15.316,34.208,34.208,34.208s34.208-15.316,34.208-34.208"/>
  </g>
  <g id="end_arrow">
    <path d="M16.313,26.46l.259,1.157c.856,3.83,2.123,7.574,3.784,11.178h0s0,0,0,0c-2.592-.96-5.493-.96-8.085,0h0s.039-.085.039-.085c1.651-3.598,2.911-7.336,3.761-11.158l.243-1.091Z"/>
  </g>
  <g id="mid_arrows">
    <path d="M54.356,72.875c-.86-1.78-1.09-3.99-1.09-6.04s.23-4.25,1.09-6.04c-2.24,2.48-4.57,4.37-6.95,5.65l-.72.39.72.39c2.38,1.28,4.71,3.17,6.95,5.65Z"/>
  </g>
  <g id="origin">
    <circle cx="84.729" cy="32.627" r="3"/>
  </g>
</svg>