<?xml version="1.0" encoding="UTF-8"?>
<svg xmlns="http://www.w3.org/2000/svg" viewBox="0 0 100 100">
  <defs>
    <style>
      .cls-1 {
        fill: none;
        stroke: red;
        stroke-miterlimit: 10;
      }
    </style>
  </defs>
  <g id="gesture_visual">
    <path d="M13.394,16.893c15.565,13.483,18.057,40.888,16.973,60.326,0,0-1.732-1.882-1.732-1.882,4.436.017,8.873.05,13.309.135,13.326.183,26.623.538,39.928,1.603-17.729,1.4-35.473,1.614-53.237,1.738,0,0-1.843.007-1.843.007l.111-1.889c.875-19.257-.356-44.823-13.509-60.037h0Z"/>
  </g>
  <g id="gesture_path">
    <path class="cls-1" d="M13.394,16.893c18.758,17.976,15.241,60.182,15.241,60.182h53.237"/>
  </g>
  <g id="end_arrow">
    <path d="M86.761,76.818l-1.157-.259c-3.83-.856-7.574-2.123-11.178-3.784h0s0,0,0,0c.96,2.592.96,5.493,0,8.085h0s.085-.039.085-.039c3.598-1.651,7.336-2.911,11.158-3.76l1.091-.243Z"/>
  </g>
  <g id="mid_arrows">
    <path d="M35.963,70.778c.86,1.78,1.09,3.99,1.09,6.04s-.23,4.25-1.09,6.04c2.24-2.48,4.57-4.37,6.95-5.65l.72-.39-.72-.39c-2.38-1.28-4.71-3.17-6.95-5.65Z"/>
  </g>
  <g id="origin">
    <circle cx="14.478" cy="18.174" r="3"/>
  </g>
</svg>